<?xml version="1.0" encoding="UTF-8" standalone="no"?>
<!-- Created with Inkscape (http://www.inkscape.org/) -->

<svg
   xmlns:dc="http://purl.org/dc/elements/1.1/"
   xmlns:cc="http://creativecommons.org/ns#"
   xmlns:rdf="http://www.w3.org/1999/02/22-rdf-syntax-ns#"
   xmlns:svg="http://www.w3.org/2000/svg"
   xmlns="http://www.w3.org/2000/svg"
   xmlns:sodipodi="http://sodipodi.sourceforge.net/DTD/sodipodi-0.dtd"
   xmlns:inkscape="http://www.inkscape.org/namespaces/inkscape"
   id="svg2"
   version="1.1"
   inkscape:version="0.48.1 r9760"
   width="620"
   height="492.5"
   xml:space="preserve"
   sodipodi:docname="plat-13A-z4.pdf"><metadata
     id="metadata8"><rdf:RDF><cc:Work
         rdf:about=""><dc:format>image/svg+xml</dc:format><dc:type
           rdf:resource="http://purl.org/dc/dcmitype/StillImage" /><dc:title></dc:title></cc:Work></rdf:RDF></metadata><defs
     id="defs6"><clipPath
       clipPathUnits="userSpaceOnUse"
       id="clipPath16"><path
         d="m 0.16667,393.96 495.853,0 0,-393.46 -495.853,0 0,393.46 z"
         id="path18" /></clipPath><clipPath
       clipPathUnits="userSpaceOnUse"
       id="clipPath136"><path
         d="m 0.16667,393.96 495.853,0 0,-393.46 -495.853,0 0,393.46 z"
         id="path138" /></clipPath><clipPath
       clipPathUnits="userSpaceOnUse"
       id="clipPath272"><path
         d="m 38.917,32.25 446.917,0 0,352.333 -446.917,0 0,-352.333 z"
         id="path274" /></clipPath></defs><sodipodi:namedview
     pagecolor="#ffffff"
     bordercolor="#666666"
     borderopacity="1"
     objecttolerance="10"
     gridtolerance="10"
     guidetolerance="10"
     inkscape:pageopacity="0"
     inkscape:pageshadow="2"
     inkscape:window-width="1440"
     inkscape:window-height="853"
     id="namedview4"
     showgrid="false"
     inkscape:zoom="1.2829767"
     inkscape:cx="310.11646"
     inkscape:cy="246.5375"
     inkscape:window-x="-2"
     inkscape:window-y="-3"
     inkscape:window-maximized="1"
     inkscape:current-layer="g10" /><g
     id="g10"
     inkscape:groupmode="layer"
     inkscape:label="plat-13A-z4"
     transform="matrix(1.25,0,0,-1.25,0,492.5)"><g
       id="g12"><g
         id="g14"
         clip-path="url(#clipPath16)"><path
           d="M 540.583,417 -36,417 l 0,-432.25 576.583,0 0,432.25 z"
           style="fill:#ffffff;fill-opacity:1;fill-rule:nonzero;stroke:none"
           id="path20" /></g></g><path
       d="m 38.917,32.333 446.833,0 0,352.25 -446.833,0 0,-352.25 z"
       style="fill:#ffffff;fill-opacity:1;fill-rule:nonzero;stroke:none"
       id="path22" /><g
       id="g24"
       transform="translate(38.917,32.333)"><path
         d="m 0,0 0,352.25 446.833,0 L 446.833,0 0,0"
         style="fill:none;stroke:#ffffff;stroke-opacity:1;stroke-width:0.5;stroke-linecap:butt;stroke-linejoin:round;stroke-miterlimit:10;stroke-dasharray:none"
         id="path26" /></g><g
       id="g28"
       transform="translate(38.917,384.583)"><path
         d="M 0,0 446.833,0"
         style="fill:none;stroke:#000000;stroke-opacity:1;stroke-width:0.5;stroke-linecap:butt;stroke-linejoin:round;stroke-miterlimit:10;stroke-dasharray:none"
         id="path30" /><g
         id="g32"
         transform="translate(0,-352.25)"><path
           d="m 0,0 446.833,0 0,352.25"
           style="fill:none;stroke:#000000;stroke-opacity:1;stroke-width:0.5;stroke-linecap:butt;stroke-linejoin:round;stroke-miterlimit:10;stroke-dasharray:none"
           id="path34" /><g
           id="g36"><path
             d="M 0,0 0,352.25"
             style="fill:none;stroke:#000000;stroke-opacity:1;stroke-width:0.5;stroke-linecap:butt;stroke-linejoin:round;stroke-miterlimit:10;stroke-dasharray:none"
             id="path38" /><g
             id="g40"><path
               d="M 0,0 446.833,0"
               style="fill:none;stroke:#000000;stroke-opacity:1;stroke-width:0.5;stroke-linecap:butt;stroke-linejoin:round;stroke-miterlimit:10;stroke-dasharray:none"
               id="path42" /><g
               id="g44"><path
                 d="M 0,0 0,352.25"
                 style="fill:none;stroke:#000000;stroke-opacity:1;stroke-width:0.5;stroke-linecap:butt;stroke-linejoin:round;stroke-miterlimit:10;stroke-dasharray:none"
                 id="path46" /><g
                 id="g48"><path
                   d="M 0,0 0,4.5"
                   style="fill:none;stroke:#000000;stroke-opacity:1;stroke-width:0.5;stroke-linecap:butt;stroke-linejoin:round;stroke-miterlimit:10;stroke-dasharray:none"
                   id="path50" /><g
                   id="g52"
                   transform="translate(0,352.25)"><path
                     d="M 0,0 0,-4.417"
                     style="fill:none;stroke:#000000;stroke-opacity:1;stroke-width:0.5;stroke-linecap:butt;stroke-linejoin:round;stroke-miterlimit:10;stroke-dasharray:none"
                     id="path54" /></g></g></g></g></g></g></g><text
       transform="matrix(1,0,0,-1,36.1667,20.25)"
       id="text56"><tspan
         style="fill:#000000;fill-opacity:1;fill-rule:nonzero;stroke:none;font-family:Helvetica;font-variant:normal;font-weight:normal;font-size:10;writing-mode:lr;-inkscape-font-specification:Helvetica"
         x="0"
         y="0"
         id="tspan58">0</tspan></text>
<g
       id="g60"
       transform="translate(113.333,32.333)"><path
         d="M 0,0 0,4.5"
         style="fill:none;stroke:#000000;stroke-opacity:1;stroke-width:0.5;stroke-linecap:butt;stroke-linejoin:round;stroke-miterlimit:10;stroke-dasharray:none"
         id="path62" /><g
         id="g64"
         transform="translate(0,352.25)"><path
           d="M 0,0 0,-4.417"
           style="fill:none;stroke:#000000;stroke-opacity:1;stroke-width:0.5;stroke-linecap:butt;stroke-linejoin:round;stroke-miterlimit:10;stroke-dasharray:none"
           id="path66" /></g></g><text
       transform="matrix(1,0,0,-1,106.4167,20.25)"
       id="text68"><tspan
         style="fill:#000000;fill-opacity:1;fill-rule:nonzero;stroke:none;font-family:Helvetica;font-variant:normal;font-weight:normal;font-size:10;writing-mode:lr;-inkscape-font-specification:Helvetica"
         x="0 5.56 8.34"
         y="0"
         sodipodi:role="line"
         id="tspan70">0.1</tspan></text>
<g
       id="g72"
       transform="translate(187.833,32.333)"><path
         d="M 0,0 0,4.5"
         style="fill:none;stroke:#000000;stroke-opacity:1;stroke-width:0.5;stroke-linecap:butt;stroke-linejoin:round;stroke-miterlimit:10;stroke-dasharray:none"
         id="path74" /><g
         id="g76"
         transform="translate(0,352.25)"><path
           d="M 0,0 0,-4.417"
           style="fill:none;stroke:#000000;stroke-opacity:1;stroke-width:0.5;stroke-linecap:butt;stroke-linejoin:round;stroke-miterlimit:10;stroke-dasharray:none"
           id="path78" /></g></g><text
       transform="matrix(1,0,0,-1,180.9167,20.25)"
       id="text80"><tspan
         style="fill:#000000;fill-opacity:1;fill-rule:nonzero;stroke:none;font-family:Helvetica;font-variant:normal;font-weight:normal;font-size:10;writing-mode:lr;-inkscape-font-specification:Helvetica"
         x="0 5.56 8.34"
         y="0"
         sodipodi:role="line"
         id="tspan82">0.2</tspan></text>
<g
       id="g84"
       transform="translate(262.333,32.333)"><path
         d="M 0,0 0,4.5"
         style="fill:none;stroke:#000000;stroke-opacity:1;stroke-width:0.5;stroke-linecap:butt;stroke-linejoin:round;stroke-miterlimit:10;stroke-dasharray:none"
         id="path86" /><g
         id="g88"
         transform="translate(0,352.25)"><path
           d="M 0,0 0,-4.417"
           style="fill:none;stroke:#000000;stroke-opacity:1;stroke-width:0.5;stroke-linecap:butt;stroke-linejoin:round;stroke-miterlimit:10;stroke-dasharray:none"
           id="path90" /></g></g><text
       transform="matrix(1,0,0,-1,255.4167,20.25)"
       id="text92"><tspan
         style="fill:#000000;fill-opacity:1;fill-rule:nonzero;stroke:none;font-family:Helvetica;font-variant:normal;font-weight:normal;font-size:10;writing-mode:lr;-inkscape-font-specification:Helvetica"
         x="0 5.56 8.34"
         y="0"
         sodipodi:role="line"
         id="tspan94">0.3</tspan></text>
<g
       id="g96"
       transform="translate(336.75,32.333)"><path
         d="M 0,0 0,4.5"
         style="fill:none;stroke:#000000;stroke-opacity:1;stroke-width:0.5;stroke-linecap:butt;stroke-linejoin:round;stroke-miterlimit:10;stroke-dasharray:none"
         id="path98" /><g
         id="g100"
         transform="translate(0,352.25)"><path
           d="M 0,0 0,-4.417"
           style="fill:none;stroke:#000000;stroke-opacity:1;stroke-width:0.5;stroke-linecap:butt;stroke-linejoin:round;stroke-miterlimit:10;stroke-dasharray:none"
           id="path102" /></g></g><text
       transform="matrix(1,0,0,-1,329.8333,20.25)"
       id="text104"><tspan
         style="fill:#000000;fill-opacity:1;fill-rule:nonzero;stroke:none;font-family:Helvetica;font-variant:normal;font-weight:normal;font-size:10;writing-mode:lr;-inkscape-font-specification:Helvetica"
         x="0 5.56 8.34"
         y="0"
         sodipodi:role="line"
         id="tspan106">0.4</tspan></text>
<g
       id="g108"
       transform="translate(411.25,32.333)"><path
         d="M 0,0 0,4.5"
         style="fill:none;stroke:#000000;stroke-opacity:1;stroke-width:0.5;stroke-linecap:butt;stroke-linejoin:round;stroke-miterlimit:10;stroke-dasharray:none"
         id="path110" /><g
         id="g112"
         transform="translate(0,352.25)"><path
           d="M 0,0 0,-4.417"
           style="fill:none;stroke:#000000;stroke-opacity:1;stroke-width:0.5;stroke-linecap:butt;stroke-linejoin:round;stroke-miterlimit:10;stroke-dasharray:none"
           id="path114" /></g></g><text
       transform="matrix(1,0,0,-1,404.3333,20.25)"
       id="text116"><tspan
         style="fill:#000000;fill-opacity:1;fill-rule:nonzero;stroke:none;font-family:Helvetica;font-variant:normal;font-weight:normal;font-size:10;writing-mode:lr;-inkscape-font-specification:Helvetica"
         x="0 5.56 8.34"
         y="0"
         sodipodi:role="line"
         id="tspan118">0.5</tspan></text>
<g
       id="g120"
       transform="translate(485.75,32.333)"><path
         d="M 0,0 0,4.5"
         style="fill:none;stroke:#000000;stroke-opacity:1;stroke-width:0.5;stroke-linecap:butt;stroke-linejoin:round;stroke-miterlimit:10;stroke-dasharray:none"
         id="path122" /><g
         id="g124"
         transform="translate(0,352.25)"><path
           d="M 0,0 0,-4.417"
           style="fill:none;stroke:#000000;stroke-opacity:1;stroke-width:0.5;stroke-linecap:butt;stroke-linejoin:round;stroke-miterlimit:10;stroke-dasharray:none"
           id="path126" /></g></g><text
       transform="matrix(1,0,0,-1,478.8334,20.25)"
       id="text128"><tspan
         style="fill:#000000;fill-opacity:1;fill-rule:nonzero;stroke:none;font-family:Helvetica;font-variant:normal;font-weight:normal;font-size:10;writing-mode:lr;-inkscape-font-specification:Helvetica"
         x="0 5.56"
         y="0"
         sodipodi:role="line"
         id="tspan130">0.</tspan></text>
<g
       id="g132"><g
         id="g134"
         clip-path="url(#clipPath136)"><text
           transform="matrix(1,0,0,-1,487.1733,20.25)"
           id="text140"><tspan
             style="fill:#000000;fill-opacity:1;fill-rule:nonzero;stroke:none;font-family:Helvetica;font-variant:normal;font-weight:normal;font-size:10;writing-mode:lr;-inkscape-font-specification:Helvetica"
             x="0"
             y="0"
             id="tspan142">6</tspan></text>
</g></g><g
       id="g144"
       transform="translate(38.917,32.333)"><path
         d="M 0,0 4.417,0"
         style="fill:none;stroke:#000000;stroke-opacity:1;stroke-width:0.5;stroke-linecap:butt;stroke-linejoin:round;stroke-miterlimit:10;stroke-dasharray:none"
         id="path146" /><g
         id="g148"
         transform="translate(446.833,0)"><path
           d="M 0,0 -4.5,0"
           style="fill:none;stroke:#000000;stroke-opacity:1;stroke-width:0.5;stroke-linecap:butt;stroke-linejoin:round;stroke-miterlimit:10;stroke-dasharray:none"
           id="path150" /></g></g><text
       transform="matrix(1,0,0,-1,30.5,28.6667)"
       id="text152"><tspan
         style="fill:#000000;fill-opacity:1;fill-rule:nonzero;stroke:none;font-family:Helvetica;font-variant:normal;font-weight:normal;font-size:10;writing-mode:lr;-inkscape-font-specification:Helvetica"
         x="0"
         y="0"
         id="tspan154">0</tspan></text>
<g
       id="g156"
       transform="translate(38.917,76.417)"><path
         d="M 0,0 4.417,0"
         style="fill:none;stroke:#000000;stroke-opacity:1;stroke-width:0.5;stroke-linecap:butt;stroke-linejoin:round;stroke-miterlimit:10;stroke-dasharray:none"
         id="path158" /><g
         id="g160"
         transform="translate(446.833,0)"><path
           d="M 0,0 -4.5,0"
           style="fill:none;stroke:#000000;stroke-opacity:1;stroke-width:0.5;stroke-linecap:butt;stroke-linejoin:round;stroke-miterlimit:10;stroke-dasharray:none"
           id="path162" /></g></g><text
       transform="matrix(1,0,0,-1,22.1667,72.75)"
       id="text164"><tspan
         style="fill:#000000;fill-opacity:1;fill-rule:nonzero;stroke:none;font-family:Helvetica;font-variant:normal;font-weight:normal;font-size:10;writing-mode:lr;-inkscape-font-specification:Helvetica"
         x="0 5.56 8.34"
         y="0"
         sodipodi:role="line"
         id="tspan166">0.5</tspan></text>
<g
       id="g168"
       transform="translate(38.917,120.417)"><path
         d="M 0,0 4.417,0"
         style="fill:none;stroke:#000000;stroke-opacity:1;stroke-width:0.5;stroke-linecap:butt;stroke-linejoin:round;stroke-miterlimit:10;stroke-dasharray:none"
         id="path170" /><g
         id="g172"
         transform="translate(446.833,0)"><path
           d="M 0,0 -4.5,0"
           style="fill:none;stroke:#000000;stroke-opacity:1;stroke-width:0.5;stroke-linecap:butt;stroke-linejoin:round;stroke-miterlimit:10;stroke-dasharray:none"
           id="path174" /></g></g><text
       transform="matrix(1,0,0,-1,30.5,116.75)"
       id="text176"><tspan
         style="fill:#000000;fill-opacity:1;fill-rule:nonzero;stroke:none;font-family:Helvetica;font-variant:normal;font-weight:normal;font-size:10;writing-mode:lr;-inkscape-font-specification:Helvetica"
         x="0"
         y="0"
         id="tspan178">1</tspan></text>
<g
       id="g180"
       transform="translate(38.917,164.5)"><path
         d="M 0,0 4.417,0"
         style="fill:none;stroke:#000000;stroke-opacity:1;stroke-width:0.5;stroke-linecap:butt;stroke-linejoin:round;stroke-miterlimit:10;stroke-dasharray:none"
         id="path182" /><g
         id="g184"
         transform="translate(446.833,0)"><path
           d="M 0,0 -4.5,0"
           style="fill:none;stroke:#000000;stroke-opacity:1;stroke-width:0.5;stroke-linecap:butt;stroke-linejoin:round;stroke-miterlimit:10;stroke-dasharray:none"
           id="path186" /></g></g><text
       transform="matrix(1,0,0,-1,22.1667,160.8333)"
       id="text188"><tspan
         style="fill:#000000;fill-opacity:1;fill-rule:nonzero;stroke:none;font-family:Helvetica;font-variant:normal;font-weight:normal;font-size:10;writing-mode:lr;-inkscape-font-specification:Helvetica"
         x="0 5.56 8.34"
         y="0"
         sodipodi:role="line"
         id="tspan190">1.5</tspan></text>
<g
       id="g192"
       transform="translate(38.917,208.5)"><path
         d="M 0,0 4.417,0"
         style="fill:none;stroke:#000000;stroke-opacity:1;stroke-width:0.5;stroke-linecap:butt;stroke-linejoin:round;stroke-miterlimit:10;stroke-dasharray:none"
         id="path194" /><g
         id="g196"
         transform="translate(446.833,0)"><path
           d="M 0,0 -4.5,0"
           style="fill:none;stroke:#000000;stroke-opacity:1;stroke-width:0.5;stroke-linecap:butt;stroke-linejoin:round;stroke-miterlimit:10;stroke-dasharray:none"
           id="path198" /></g></g><text
       transform="matrix(1,0,0,-1,30.5,204.8333)"
       id="text200"><tspan
         style="fill:#000000;fill-opacity:1;fill-rule:nonzero;stroke:none;font-family:Helvetica;font-variant:normal;font-weight:normal;font-size:10;writing-mode:lr;-inkscape-font-specification:Helvetica"
         x="0"
         y="0"
         id="tspan202">2</tspan></text>
<g
       id="g204"
       transform="translate(38.917,252.5)"><path
         d="M 0,0 4.417,0"
         style="fill:none;stroke:#000000;stroke-opacity:1;stroke-width:0.5;stroke-linecap:butt;stroke-linejoin:round;stroke-miterlimit:10;stroke-dasharray:none"
         id="path206" /><g
         id="g208"
         transform="translate(446.833,0)"><path
           d="M 0,0 -4.5,0"
           style="fill:none;stroke:#000000;stroke-opacity:1;stroke-width:0.5;stroke-linecap:butt;stroke-linejoin:round;stroke-miterlimit:10;stroke-dasharray:none"
           id="path210" /></g></g><text
       transform="matrix(1,0,0,-1,22.1667,248.8334)"
       id="text212"><tspan
         style="fill:#000000;fill-opacity:1;fill-rule:nonzero;stroke:none;font-family:Helvetica;font-variant:normal;font-weight:normal;font-size:10;writing-mode:lr;-inkscape-font-specification:Helvetica"
         x="0 5.56 8.34"
         y="0"
         sodipodi:role="line"
         id="tspan214">2.5</tspan></text>
<g
       id="g216"
       transform="translate(38.917,296.583)"><path
         d="M 0,0 4.417,0"
         style="fill:none;stroke:#000000;stroke-opacity:1;stroke-width:0.5;stroke-linecap:butt;stroke-linejoin:round;stroke-miterlimit:10;stroke-dasharray:none"
         id="path218" /><g
         id="g220"
         transform="translate(446.833,0)"><path
           d="M 0,0 -4.5,0"
           style="fill:none;stroke:#000000;stroke-opacity:1;stroke-width:0.5;stroke-linecap:butt;stroke-linejoin:round;stroke-miterlimit:10;stroke-dasharray:none"
           id="path222" /></g></g><text
       transform="matrix(1,0,0,-1,30.5,292.9167)"
       id="text224"><tspan
         style="fill:#000000;fill-opacity:1;fill-rule:nonzero;stroke:none;font-family:Helvetica;font-variant:normal;font-weight:normal;font-size:10;writing-mode:lr;-inkscape-font-specification:Helvetica"
         x="0"
         y="0"
         id="tspan226">3</tspan></text>
<g
       id="g228"
       transform="translate(38.917,340.583)"><path
         d="M 0,0 4.417,0"
         style="fill:none;stroke:#000000;stroke-opacity:1;stroke-width:0.5;stroke-linecap:butt;stroke-linejoin:round;stroke-miterlimit:10;stroke-dasharray:none"
         id="path230" /><g
         id="g232"
         transform="translate(446.833,0)"><path
           d="M 0,0 -4.5,0"
           style="fill:none;stroke:#000000;stroke-opacity:1;stroke-width:0.5;stroke-linecap:butt;stroke-linejoin:round;stroke-miterlimit:10;stroke-dasharray:none"
           id="path234" /></g></g><text
       transform="matrix(1,0,0,-1,22.1667,336.9167)"
       id="text236"><tspan
         style="fill:#000000;fill-opacity:1;fill-rule:nonzero;stroke:none;font-family:Helvetica;font-variant:normal;font-weight:normal;font-size:10;writing-mode:lr;-inkscape-font-specification:Helvetica"
         x="0 5.56 8.34"
         y="0"
         sodipodi:role="line"
         id="tspan238">3.5</tspan></text>
<g
       id="g240"
       transform="translate(38.917,384.583)"><path
         d="M 0,0 4.417,0"
         style="fill:none;stroke:#000000;stroke-opacity:1;stroke-width:0.5;stroke-linecap:butt;stroke-linejoin:round;stroke-miterlimit:10;stroke-dasharray:none"
         id="path242" /><g
         id="g244"
         transform="translate(446.833,0)"><path
           d="M 0,0 -4.5,0"
           style="fill:none;stroke:#000000;stroke-opacity:1;stroke-width:0.5;stroke-linecap:butt;stroke-linejoin:round;stroke-miterlimit:10;stroke-dasharray:none"
           id="path246" /></g></g><text
       transform="matrix(1,0,0,-1,30.5,380.9167)"
       id="text248"><tspan
         style="fill:#000000;fill-opacity:1;fill-rule:nonzero;stroke:none;font-family:Helvetica;font-variant:normal;font-weight:normal;font-size:10;writing-mode:lr;-inkscape-font-specification:Helvetica"
         x="0"
         y="0"
         id="tspan250">4</tspan></text>
<g
       id="g252"
       transform="translate(38.917,384.583)"><path
         d="M 0,0 446.833,0"
         style="fill:none;stroke:#000000;stroke-opacity:1;stroke-width:0.5;stroke-linecap:butt;stroke-linejoin:round;stroke-miterlimit:10;stroke-dasharray:none"
         id="path254" /><g
         id="g256"
         transform="translate(0,-352.25)"><path
           d="m 0,0 446.833,0 0,352.25"
           style="fill:none;stroke:#000000;stroke-opacity:1;stroke-width:0.5;stroke-linecap:butt;stroke-linejoin:round;stroke-miterlimit:10;stroke-dasharray:none"
           id="path258" /><g
           id="g260"><path
             d="M 0,0 0,352.25"
             style="fill:none;stroke:#000000;stroke-opacity:1;stroke-width:0.5;stroke-linecap:butt;stroke-linejoin:round;stroke-miterlimit:10;stroke-dasharray:none"
             id="path262" /></g></g></g><g
       id="g264"
       transform="translate(46.417,218.167)"><path
         d="M 0,0 7.333,-10.583 14.667,0.917 22,-13.167 29.333,-22 l 7.334,7.083 7.333,-6.166 7.333,1.75 7.334,7.916 7.333,-7.916 7.417,6.166 7.25,-7.916 7.416,10.5 7.334,-7.917 7.333,7.917 7.333,-14.084 7.334,12.334 7.416,-8.75 7.25,14.083 7.417,-13.25 7.25,5.333 7.417,-6.166 7.25,7 7.416,-3.5 7.25,21.166 7.417,-12.333 7.333,-5.333 7.334,7.083 7.333,-4.417 7.333,1.75 7.334,7.917 7.333,-17.583 7.333,5.25 7.334,0 7.333,-6.167 7.417,8.833 7.25,-2.666 7.416,7.083 7.334,-10.583 7.333,7.916 7.333,-4.416 7.334,4.416 7.416,6.167 7.25,-7.917 7.417,0.834 7.25,4.416 7.417,0.917 7.25,-0.917 7.416,5.334 7.25,14.916 7.417,-14.916 7.333,14.916 7.334,27.334 L 389,18.5 l 7.333,27.333 7.334,14.084 7.333,-14.084 7.333,59.834 7.334,-6.167 7.333,7.083"
         style="fill:none;stroke:#0000ff;stroke-opacity:1;stroke-width:0.5;stroke-linecap:butt;stroke-linejoin:round;stroke-miterlimit:10;stroke-dasharray:none"
         id="path266" /></g><g
       id="g268"><g
         id="g270"
         clip-path="url(#clipPath272)"><g
           id="g276"
           transform="translate(253.25,384.583)"><path
             d="m 0,0 5.917,-35.167 22,-88.083 22.083,-61.667 22,-44 22,-26.416 22.083,-17.584 22,-17.666 22.084,-17.584 21.916,-8.833 22.084,-8.75 22,0"
             style="fill:none;stroke:#008000;stroke-opacity:1;stroke-width:0.5;stroke-linecap:butt;stroke-linejoin:round;stroke-miterlimit:10;stroke-dasharray:none"
             id="path278" /></g><g
           id="g280"
           transform="translate(403.5,384.583)"><path
             d="m 0,0 9.917,-79.25 21.916,-96.833 22.084,-52.834 22,-35.25"
             style="fill:none;stroke:#ff0000;stroke-opacity:1;stroke-width:0.5;stroke-linecap:butt;stroke-linejoin:round;stroke-miterlimit:10;stroke-dasharray:none"
             id="path282" /></g></g></g><text
       transform="matrix(1,0,0,-1,253.1667,4.8333)"
       id="text284"><tspan
         style="fill:#000000;fill-opacity:1;fill-rule:nonzero;stroke:none;font-family:Helvetica;font-variant:normal;font-weight:normal;font-size:10;writing-mode:lr;-inkscape-font-specification:Helvetica"
         x="0 5.56 8.34"
         y="0"
         sodipodi:role="line"
         id="tspan286">1/d</tspan></text>
<text
       transform="matrix(1,0,0,-1,267,9.8333)"
       id="text288"><tspan
         style="fill:#000000;fill-opacity:1;fill-rule:nonzero;stroke:none;font-family:Helvetica;font-variant:normal;font-weight:normal;font-size:8;writing-mode:lr;-inkscape-font-specification:Helvetica"
         x="0"
         y="0"
         id="tspan290">2</tspan></text>
<text
       transform="matrix(0,1,1,0,14.6667,194.3333)"
       id="text292"><tspan
         style="fill:#000000;fill-opacity:1;fill-rule:nonzero;stroke:none;font-family:Helvetica;font-variant:normal;font-weight:normal;font-size:10;writing-mode:lr;-inkscape-font-specification:Helvetica"
         x="0"
         y="0"
         id="tspan294">E</tspan></text>
<text
       transform="matrix(0,1,1,0,9.6667,201)"
       id="text296"><tspan
         style="fill:#000000;fill-opacity:1;fill-rule:nonzero;stroke:none;font-family:Helvetica;font-variant:normal;font-weight:normal;font-size:8;writing-mode:lr;-inkscape-font-specification:Helvetica"
         x="0"
         y="0"
         id="tspan298">4</tspan></text>
<text
       transform="matrix(0,1,1,0,14.6667,205.4167)"
       id="text300"><tspan
         style="fill:#000000;fill-opacity:1;fill-rule:nonzero;stroke:none;font-family:Helvetica;font-variant:normal;font-weight:normal;font-size:10;writing-mode:lr;-inkscape-font-specification:Helvetica"
         x="0 2.78 5.56 8.34"
         y="0"
         sodipodi:role="line"
         id="tspan302">, I/</tspan></text>
<text
       transform="matrix(0,1,1,0,14.6667,216.4997)"
       id="text304"><tspan
         style="fill:#000000;fill-opacity:1;fill-rule:nonzero;stroke:none;font-family:Symbol;font-variant:normal;font-weight:normal;font-size:10;writing-mode:lr;-inkscape-font-specification:Symbol"
         x="0"
         y="0"
         id="tspan306">σ</tspan></text>
<path
       d="m 43.917,37.333 93.917,0 0,42.917 -93.917,0 0,-42.917 z"
       style="fill:#ffffff;fill-opacity:1;fill-rule:nonzero;stroke:none"
       id="path308" /><g
       id="g310"
       transform="translate(43.917,37.333)"><path
         d="m 0,0 0,42.917 93.917,0 L 93.917,0 0,0"
         style="fill:none;stroke:#ffffff;stroke-opacity:1;stroke-width:0.5;stroke-linecap:butt;stroke-linejoin:round;stroke-miterlimit:10;stroke-dasharray:none"
         id="path312" /></g><g
       id="g314"
       transform="translate(43.917,80.25)"><path
         d="M 0,0 93.917,0"
         style="fill:none;stroke:#000000;stroke-opacity:1;stroke-width:0.5;stroke-linecap:butt;stroke-linejoin:round;stroke-miterlimit:10;stroke-dasharray:none"
         id="path316" /><g
         id="g318"
         transform="translate(0,-42.917)"><path
           d="m 0,0 93.917,0 0,42.917"
           style="fill:none;stroke:#000000;stroke-opacity:1;stroke-width:0.5;stroke-linecap:butt;stroke-linejoin:round;stroke-miterlimit:10;stroke-dasharray:none"
           id="path320" /><g
           id="g322"><path
             d="M 0,0 0,42.917"
             style="fill:none;stroke:#000000;stroke-opacity:1;stroke-width:0.5;stroke-linecap:butt;stroke-linejoin:round;stroke-miterlimit:10;stroke-dasharray:none"
             id="path324" /><g
             id="g326"><path
               d="M 0,0 93.917,0"
               style="fill:none;stroke:#000000;stroke-opacity:1;stroke-width:0.5;stroke-linecap:butt;stroke-linejoin:round;stroke-miterlimit:10;stroke-dasharray:none"
               id="path328" /><g
               id="g330"><path
                 d="m 0,0 0,42.917 93.917,0"
                 style="fill:none;stroke:#000000;stroke-opacity:1;stroke-width:0.5;stroke-linecap:butt;stroke-linejoin:round;stroke-miterlimit:10;stroke-dasharray:none"
                 id="path332" /><g
                 id="g334"><path
                   d="m 0,0 93.917,0 0,42.917"
                   style="fill:none;stroke:#000000;stroke-opacity:1;stroke-width:0.5;stroke-linecap:butt;stroke-linejoin:round;stroke-miterlimit:10;stroke-dasharray:none"
                   id="path336" /><g
                   id="g338"><path
                     d="M 0,0 0,42.917"
                     style="fill:none;stroke:#000000;stroke-opacity:1;stroke-width:0.5;stroke-linecap:butt;stroke-linejoin:round;stroke-miterlimit:10;stroke-dasharray:none"
                     id="path340" /></g></g></g></g></g></g></g><text
       transform="matrix(1,0,0,-1,71.6667,66.75)"
       id="text342"><tspan
         style="fill:#000000;fill-opacity:1;fill-rule:nonzero;stroke:none;font-family:Helvetica;font-variant:normal;font-weight:normal;font-size:10;writing-mode:lr;-inkscape-font-specification:Helvetica"
         x="0"
         y="0"
         id="tspan344">E</tspan></text>
<text
       transform="matrix(1,0,0,-1,78.3333,71.75)"
       id="text346"><tspan
         style="fill:#000000;fill-opacity:1;fill-rule:nonzero;stroke:none;font-family:Helvetica;font-variant:normal;font-weight:normal;font-size:8;writing-mode:lr;-inkscape-font-specification:Helvetica"
         x="0"
         y="0"
         id="tspan348">4</tspan></text>
<text
       transform="matrix(1,0,0,-1,71.6667,54.4167)"
       id="text350"><tspan
         style="fill:#000000;fill-opacity:1;fill-rule:nonzero;stroke:none;font-family:Helvetica;font-variant:normal;font-weight:normal;font-size:10;writing-mode:lr;-inkscape-font-specification:Helvetica"
         x="0 7.22 12.78 21.11 26.67 30 35.56 41.12 46.68 49.46 52.24"
         y="0"
         sodipodi:role="line"
         id="tspan352">Unmerged I/</tspan></text>
<text
       transform="matrix(1,0,0,-1,126.6667,54.4167)"
       id="text354"><tspan
         style="fill:#000000;fill-opacity:1;fill-rule:nonzero;stroke:none;font-family:Symbol;font-variant:normal;font-weight:normal;font-size:10;writing-mode:lr;-inkscape-font-specification:Symbol"
         x="0"
         y="0"
         id="tspan356">σ</tspan></text>
<text
       transform="matrix(1,0,0,-1,71.6667,41.4167)"
       id="text358"><tspan
         style="fill:#000000;fill-opacity:1;fill-rule:nonzero;stroke:none;font-family:Helvetica;font-variant:normal;font-weight:normal;font-size:10;writing-mode:lr;-inkscape-font-specification:Helvetica"
         x="0 8.33 13.89 17.22 22.78 28.34 33.9 36.68 39.46"
         y="0"
         sodipodi:role="line"
         id="tspan360">Merged I/</tspan></text>
<text
       transform="matrix(1,0,0,-1,113.8337,41.4167)"
       id="text362"><tspan
         style="fill:#000000;fill-opacity:1;fill-rule:nonzero;stroke:none;font-family:Symbol;font-variant:normal;font-weight:normal;font-size:10;writing-mode:lr;-inkscape-font-specification:Symbol"
         x="0"
         y="0"
         id="tspan364">σ</tspan></text>
<g
       id="g366"
       transform="translate(49.417,72.167)"><path
         d="M 0,0 16.667,0"
         style="fill:none;stroke:#0000ff;stroke-opacity:1;stroke-width:0.5;stroke-linecap:butt;stroke-linejoin:round;stroke-miterlimit:10;stroke-dasharray:none"
         id="path368" /></g><g
       id="g370"
       transform="translate(49.417,58.583)"><path
         d="M 0,0 16.667,0"
         style="fill:none;stroke:#008000;stroke-opacity:1;stroke-width:0.5;stroke-linecap:butt;stroke-linejoin:round;stroke-miterlimit:10;stroke-dasharray:none"
         id="path372" /></g><g
       id="g374"
       transform="translate(49.417,45)"><path
         d="M 0,0 16.667,0"
         style="fill:none;stroke:#ff0000;stroke-opacity:1;stroke-width:0.5;stroke-linecap:butt;stroke-linejoin:round;stroke-miterlimit:10;stroke-dasharray:none"
         id="path376" /></g></g></svg>